Battleship.2012.BDRip.DivX.AC3-Atilla82



 
http://www.imdb.com/title/tt1440129/


A fleet of ships is forced to do battle 
with an armada of unknown origins in 
order to discover and thwart their 
destructive goals.





General
Complete name : Battleship.2012.BDRip.DivX.AC3-Atilla82.avi
Format : AVI
Format/Info : Audio Video Interleave
File size : 1.37 GiB
Duration : 2h 11mn
Overall bit rate : 1 493 Kbps

Video
ID : 0
Format : MPEG-4 Visual
Format settings, BVOP : 1
Format settings, QPel : No
Format settings, GMC : No warppoints
Format settings, Matrix : Default (H.263)
Codec ID : DX50
Codec ID/Hint : DivX 5
Duration : 2h 11mn
Bit rate : 1 100 Kbps
Width : 720 pixels
Height : 300 pixels
Display aspect ratio : 2.40:1
Frame rate : 23.976 fps
Color space : YUV
Chroma subsampling : 4:2:0
Bit depth : 8 bits
Scan type : Progressive
Compression mode : Lossy
Bits/(Pixel*Frame) : 0.212
Stream size : 1.01 GiB (74%)
Writing library : DivX 3330

Audio
ID : 1
Format : AC-3
Format/Info : Audio Coding 3
Mode extension : CM (complete main)
Format settings, Endianness : Big
Codec ID : 2000
Duration : 2h 11mn
Source duration : 2h 11mn
Bit rate mode : Constant
Bit rate : 384 Kbps
Channel(s) : 6 channels
Channel positions : Front: L C R, Side: L R, LFE
Sampling rate : 48.0 KHz
Bit depth : 16 bits
Compression mode : Lossy
Stream size : 360 MiB (26%)
Alignment : Aligned on interleaves
Interleave, duration : 42 ms (1.00 video frame)



screenshots 
http://www.pohrani.com/f/1k/Ro/2snU2GVx/screenshots.jpg


